/* XPM */
static char *result[] = {
/* columns rows colors chars-per-pixel */
"64 64 22 1 ",
"  c #3D3550",
". c #20667F",
"X c #E54A38",
"o c #BA325C",
"O c #DB4747",
"+ c #E46253",
"@ c #F07960",
"# c #EF8A5A",
"$ c #CE8775",
"% c #F69A73",
"& c #F6C37E",
"* c #5F7E94",
"= c #248B92",
"- c #34AC9D",
"; c #778FA2",
": c #8DAAB6",
"> c #DFB29D",
", c #ECD5BF",
"< c #FFEFAA",
"1 c #A6C3C8",
"2 c #F2F7F6",
"3 c None",
/* pixels */
"3333333333333333333333333333333333333333333333333333333333333333",
"3333333333333333333333333333333333333333333333333333333333333333",
"3333333333333333333333333333333333333333333333333333333333333333",
"3333333333333333333333333333333333333333333333333333333333333333",
"3333333333333333333333333333333333333333333333333333333333333333",
"3333333333333333333333333333333333333333333333333333333333333333",
"3333333333333333333333333333333333333333333333333333333333333333",
"3333333333333333333333333333333333333333333333333333333333333333",
"3333333333333333333333333333333333333333333333333333333333333333",
"3333333333333333333333333333333333333333333333333333333333333333",
"3333333333333333333333333333333333333333333333333333333333333333",
"3333333333333333333333333333333333333333333333333333333333333333",
"3333333333333333333333333333333333333333333333333333333333333333",
"3333333333333333333333333333333333333333333333333333333333333333",
"3333333333333333333333333333333333333333333333333333333333333333",
"3333333333333333333333333333333333333333333333333333333333333333",
"3333333333333333333333333333333333333333333333333333333333333333",
"3333333333333333333333333333333333333333333333333333333333333333",
"3333333333333333333333333333333333333333333333333333333333333333",
"3333333333333333333333333333333333333333333333333333333333333333",
"3333333333333333333333333333333333333333333333333333333333333333",
"3333333333333333333333333333333333333333333333333333333333333333",
"3333333333333333333333333333333333333333333333333333333333333333",
"3333333333333333333333333333333333333333333333333333333333333333",
"3333333333333333333333333333333333333333333333333333333333333333",
"3333333333333333333333333333333333333333333333333333333333333333",
"3333333333333333333333333333333333333333333333333333333333333333",
"3333333333333333333333333333333333333333333333333333333333333333",
"3333333333333333333333333333333333333333333333333333333333333333",
"3333333333333333333333333333333333333333333333333333333333333333",
"3333333333333333333333333333333333333333333333333333333333333333",
"3333333333333333333333333333333333333333333333333333333333333333",
"3333333333333333333333333333333333333333333333333333333333333333",
"3333333333333333333333333333333333333333333333333333333333333333",
"3333333333333333333333333333333333333333333333333333333333333333",
"3333333333333333333333333333333333333333333333333333333333333333",
"3333333333333333333333333333333333333333333333333333333333333333",
"3333333333333333333333333333333333333333333333333333333333333333",
"33333333333333333333333333333    33      3  33333333333333333333",
"3333333333333333333333333333 X#&#  #&&<&< <& 3333333333333333333",
"3333333333333333333333333333 ##&&  &&   < << 3333333333333333333",
"3333333333333333333333333333 ##&&#&&&# #<&<< 3333333333333333333",
"3333333333333333333333333333 X#&&#&&&&&&<&<& 3333333333333333333",
"3333333333333333333333333333                 3333333333333333333",
"333333333333333333333333333 *; *;;1 111 21 22 333333333333333333",
"333333333333333333333333333                   333333333333333333",
"333333333333333333333333333  oOOOOO$>>>>>$OO  333333333333333333",
"3333333333333333333333333333 OOOO+> ,,,,, >+ 3333333333333333333",
"3333333333333333333333333333 OO+@@,,,@@@@,,@ 3333333333333333333",
"3333333333333333333333333333 oO@@@@@@@  @@@@ 3333333333333333333",
"3333333333333333333333333333  O+O@@@%@%%%@@@ 3333333333333333333",
"333333333333333         3333   OO@@@@@@@@@@@ 3333333333333333333",
"33333333333333 21222121: 33 >$ o +O@@@@@@@@+ 3333333333333333333",
"33333333333333 1:::::::; 3 ,,>   OO@+O@@+O+O  333333333333333333",
"33333333333333 1:1:::1:; 3 ,,>$  o OOOOOO OO , 33333333333333333",
"33333333333333 1:;:::;:; 3 ,  $$   oO oOo o  > 3  33333333333333",
"33333333333333 1:::::::;                        12 3333333333333",
"33333333333333 1:::::::;   **:::1112122211:::*  :1 3333333333333",
"33333333333333 1:::::::;                        *: 3333333333333",
"33333333333333 1:::::::; 3333               3333  33333333333333",
"33333333333333 1:1:::1:; 3333 .====--=-===. 33333333333333333333",
"33333333333333 1:;:::;:; 3333 =.         .= 33333333333333333333",
"33333333333333 :;;;;;;;* 3333 . 333333333 . 33333333333333333333",
"333333333333333         33333  3333333333  333333333333333333333"
};
