/* XPM */
static char *_911714fc4854ec6f8fa5ed6f604351a5zFSqk8KUGHzSsk5[] = {
/* columns rows colors chars-per-pixel */
"64 64 22 1 ",
"  c None",
". c #3A324F",
"X c #E64935",
"o c #BB2E5C",
"O c #DC4545",
"+ c #E56252",
"@ c #F07A60",
"# c #EF8B5A",
"$ c #CF8876",
"% c #F69B74",
"& c #F6C47F",
"* c #1A6680",
"= c #5F7F95",
"- c #1F8C93",
"; c #31AD9E",
": c #7890A3",
"> c #8EABB7",
", c #E0B39E",
"< c #FFEFAB",
"1 c #A7C4C9",
"2 c #ECD6C0",
"3 c #F2F7F6",
/* pixels */
"                                                                ",
"                                                                ",
"                                                                ",
"                                                                ",
"                                                                ",
"                                                                ",
"                                                                ",
"                                                                ",
"                                                                ",
"                                                                ",
"                                                                ",
"                                                                ",
"                                                                ",
"                                                                ",
"                                                                ",
"                                                                ",
"                                                                ",
"                                                                ",
"                                                                ",
"                                                                ",
"                                                                ",
"                                                                ",
"                                                                ",
"                                                                ",
"                                                                ",
"                                                                ",
"                                                                ",
"                                                                ",
"                                                                ",
"                                                                ",
"                                                                ",
"                                                                ",
"                                                                ",
"                                                                ",
"                                                                ",
"                                                                ",
"                                                                ",
"                                                                ",
"                    .. ......  ....                             ",
"                   .&<.<&<&&#..#&#X.                            ",
"                   .<<.<...&&..&&##.                            ",
"                   .<<&<#.#&&&#&&##.                            ",
"                   .&<&<&&&&&&#&&#X.                            ",
"                   .................                            ",
"                  .33.13.111.1::=.:=.                           ",
"                  ...................                           ",
"                  ..OO$,,,,,$OOOOOo..                           ",
"                   .+,.22222.,+OOOO.                            ",
"                   .@22@@@@222@@+OO.                            ",
"                   .@@@@..@@@@@@@Oo.                            ",
"                   .@@@%%%@%@@@O+O..                            ",
"                   .@@@@@@@@@@@OO...    .........               ",
"                   .+@@@@@@@@O+.o.$,.  .>13133313.              ",
"                  ..O+O+@@O+@OO...,22. .:>>>>>>>1.              ",
"                 .2.OO.OOOOOO.o..$,22. .:>1>>>1>1.              ",
"              .. .,..o.oOo.Oo...$$..2. .:>:>>>:>1.              ",
"             .31........................:>>>>>>>1.              ",
"             .1>..=>>>1133313111>>>==...:>>>>>>>1.              ",
"             .>=........................:>>>>>>>1.              ",
"              ..    ...............    .:>>>>>>>1.              ",
"                    .*---;-;;----*.    .:>1>>>1>1.              ",
"                    .-*.........*-.    .:>:>>>:>1.              ",
"                    .*.         .*.    .=:::::::>.              ",
"                     ..          ..     .........               "
};
