/* XPM */
static char *result[] = {
/* columns rows colors chars-per-pixel */
"64 64 58 1 ",
"  c #3F3851",
". c #413753",
"X c #5A3755",
"o c #584B57",
"O c #89345B",
"+ c #88355B",
"@ c #89355C",
"# c #89365C",
"$ c #9E3B57",
"% c #BF3A4B",
"& c #AD3157",
"* c #AD434D",
"= c #AE424C",
"- c #AE434D",
"; c #AF434D",
": c #AD444D",
"> c #AE444D",
", c #AE444E",
"< c #B0464E",
"1 c #BF5753",
"2 c #D04F4E",
"3 c #D25654",
"4 c #E54B4E",
"5 c #CC7161",
"6 c #CD7162",
"7 c #CE7162",
"8 c #CD7262",
"9 c #CD7263",
"0 c #CD7363",
"q c #CE7262",
"w c #CE7263",
"e c #E27F6D",
"r c #F47867",
"t c #E2806D",
"y c #FC9E78",
"u c #EDA27F",
"i c #FDAA80",
"p c #FFC88F",
"a c #FFC991",
"s c #FCC992",
"d c #FFCA93",
"f c #FAC895",
"g c #FBC995",
"h c #FBC896",
"j c #FBC996",
"k c #FACA96",
"l c #FBCA96",
"z c #FBCA97",
"x c #FCC995",
"c c #F9C998",
"v c #FBCA98",
"b c #FBD5A1",
"n c #FED7A5",
"m c #FFE5B2",
"M c #FDE4B4",
"N c #FFEAB7",
"B c #FFFAD6",
"V c None",
/* pixels */
"o                                                              o",
" uzNBNNzu euzzNBNNzzzue euzNBNzzNNzNzzue euzzNBBNNNzue uzNNBNzu ",
" zzzzzzzz ezzzzzzzzzzze ezzzzzzzzzzzzzze ezzzzzzzzzzze zzzzzzzz ",
" zzzzzzzz ezzzzzzzzzzze ezzzzzzzzzzzzzze ezzzzzzzzzzze zzzzzzzz ",
" zzzzzzzz euzzzzzzzzzue euzzzzzzzzzzzzue euzzzzzzzzzue zzzzzzzz ",
" uzzzzzzu eeuzzzzzzzuee eeuzzzzzzzzzzuee eeuzzzzzzzuee uzzzzzzu ",
" euzzzzue eeeeeeeeeeeee eeeeeeeeeeeeeeee eeeeeeeeeeeee euzzzzue ",
" eeeeeeee 3eeeeeeeeeee3 3eeeeeeeeeeeeee3 3eeeeeeeeeee3 eeeeeeee ",
" 3eeeeee3                                              3eeeeee3 ",
"VVVVV                                                           ",
" tttttt3         #$,,,$# #$,,,,,,#$,,,$# #$,,,$#        3eeeeee ",
" uzzueee  #,,,,# $,,,,,$ $,,,,,,,$,,,,,$ $,,,,,$ #,,,#  eeeuzzu ",
" zzzzuee                                                eeuzzzz ",
" zzzzzee    #,,,,,,# #,,,,# #,# #,,# #,,,,# #,,,,,,#    eezzzzN ",
" Nzzzzee    ,,100001 100001 101 1001 100001 100001,,    eezzzzN ",
" Nzzzzee    #,00000, ,0000, ,0, ,00, ,0000, ,00000,#    eezzzzz ",
" Bzzzzee                                                eezzzzN ",
" Bzzzzee  #,,,1, ,00000, ,0000000,00000, ,00000, 1,,,#  eezzzzB ",
" Nzzzzee  ,,,,00 0000000 000000000000000 0000000 0,,,,  eezzzzN ",
" zzzzzee  #,,,1, ,00000, ,0000000,00000, ,00000, 1,,,#  eezzzzz ",
" zzzzuee                                                eeuzzzz ",
" uzzueee    #100000, 100001 ,0, 100, 100001 ,000001#    eeeuzzu ",
" eeeeee3    ,0000000 ,1001, 000 ,000 ,1001, 0000000,    3eeeeee ",
"            #100000,        ,0,  00,        ,000001#            ",
" eeeeee3                                                3eeeeee ",
" uzzueee  #,,,1, ,0000,                    ,000, 1,,,#  eeeuzzu ",
" zzzzuee  ,,,,00 000000                    00000 0,,,,  eeuzzzz ",
" zzzzzee  #,,,1, ,0000,                    ,000, 1,,,#  eezzzzN ",
" Nzzzzee                                                eezzzzB ",
" zzzzzee    #000000, ,00,               10, ,000001#    eezzzzB ",
" Nzzzzee    ,0000000 0000               000 0000000,    eezzzzN ",
" Nzzzzee    #000000, ,00,               ,01 ,000001#    eezzzzz ",
" mjzzzee                                                eezzzzz ",
" cgvzzee  #,,,1, ,00000,                 ,00000, 1,,,#  eezzzzN ",
".blfpprr. ,,,,00 0000000                 0000000 0,,,,  eezzzzB ",
".Mlkpprr. #,,,1, ,-:000,                 ,00000, 1,,,#  eezzzzB ",
".nlkpprr..................             ................ eezzzzN ",
".sllpprr...#87q887-.-wq;..             ...*886*.2-=:@.. eezzzzz ",
".xfhpyrr...,8888888.8888..             ...68898.8-->,.. eeuzzzz ",
".idayrrr...+888888-.<85,..             ...*586,.2*--O.. eeeuzzu ",
".rrrrrr4..................             ................ 3eeeeee ",
"......... #,,,1,         ,00000,         ,00000, 1,,,#          ",
" eeeeee3  ,,,,00 ,10001, 0000000 ,10001, 0000000 0,,,,  3tttttt ",
" uzzueee  #,,,1, 1000001 ,00000, 1000001 ,00000, 1,,,#  eeeuzzu ",
" zzzzuee                                                eeuzzzz ",
" zzzzzee    #100000, ,0000, ,000000, ,0000, ,000001#    eezzzzz ",
" Nzzzzee    ,0000000 000000 00000000 000000 0000000,    eezzzzN ",
" Bzzzzee    #100000, ,0000, ,000000, ,0000, ,000001#    eezzzzB ",
" Nzzzzee                                                eezzzzN ",
" zzzzzee  #,,,0, ,00000, ,00000, ,00000, ,00000, 0,,,#  eezzzzz ",
" Nzzzzee  ,,,,10 1000001 1000001 1000001 1000001 1,,,,  eezzzzN ",
" zzzzuee  #,,,,# #,,,,,# #,,,,,# #,,,,,# #,,,,,+X#,,,#  eeuzzzz ",
" uzzueee        .................................       eeeuzzu ",
" eeeeee3    #,,,.&%%%%%&.&%%%%%%%&%%%%%&.&%%%%%&.,,#    3eeeeee ",
"                .................................               ",
" 3eeeeee3                                              3eeeeee3 ",
" eeeeeeee 3eeeeeeeeeee3 3eeeeeeeee3 3eeeeeeeeeeeeeeee3 eeeeeeee ",
" euzzzzue eeeeeeeeeeeee eeeeeeeeeee eeeeeeeeeeeeeeeeee euzzzzue ",
" uzzzzzzu eeuzzzzzzzuee eeuzzzzzzee eeuzzzzzzzzzzzzuee uzzzzzzu ",
" zzzzzzzz euzzzzzzzzzue euzzzzzzzue euzzzzzzzzzzzzzzue zzzzzzzz ",
" zzzzzzzz ezzzzzzzzzzze ezzzzzzzzze ezzzzzzzzzzzzzzzze zzzzzzzz ",
" zzzzzzzz ezzzzzzzzzzze ezzzzzzzzze ezzzzzzzzzzzzzzzze zzzzzzzz ",
" uzNBNNzu euzzNzNBNzzue euzzNzNBNue euzzNzNBNzNNBNzzue uzNNBNzu ",
"o                                                              o"
};
